<?xml version="1.0" standalone="no"?>
<!DOCTYPE svg PUBLIC "-//W3C//DTD SVG 20010904//EN"
 "http://www.w3.org/TR/2001/REC-SVG-20010904/DTD/svg10.dtd">
<svg version="1.0" xmlns="http://www.w3.org/2000/svg"
 width="636.000000pt" height="636.000000pt" viewBox="0 0 636.000000 636.000000"
 preserveAspectRatio="xMidYMid meet">
<metadata>
Created by potrace 1.11, written by Peter Selinger 2001-2013
</metadata>
<g transform="translate(0.000000,636.000000) scale(0.100000,-0.100000)"
fill="#000000" stroke="none">
<path d="M4851 6255 c-87 -27 -130 -96 -131 -211 0 -39 7 -91 16 -117 18 -52
82 -130 126 -153 55 -29 157 -16 202 24 63 58 81 200 38 297 -64 142 -145 193
-251 160z m144 -89 c50 -52 75 -118 75 -199 0 -103 -43 -157 -125 -157 -70 0
-129 52 -160 139 -32 93 -8 206 52 243 15 10 48 18 72 18 40 0 49 -5 86 -44z"/>
<path d="M4869 6047 c-40 -26 -50 -74 -25 -112 22 -33 50 -39 90 -20 45 21 63
63 46 105 -22 54 -58 63 -111 27z m61 -57 c0 -24 -26 -38 -42 -22 -8 8 -8 15
2 27 18 21 40 19 40 -5z"/>
<path d="M1973 6133 c-38 -7 -65 -52 -58 -92 9 -50 40 -106 71 -130 48 -38
174 -23 282 33 57 29 53 100 -7 130 -65 34 -238 69 -288 59z m204 -83 c93 -32
98 -45 27 -76 -33 -14 -82 -28 -110 -31 -43 -5 -54 -2 -77 18 -28 24 -60 97
-50 113 9 14 143 -1 210 -24z"/>
<path d="M4410 6034 c-52 -47 -129 -164 -218 -329 -79 -146 -97 -199 -82 -239
7 -20 16 -26 40 -26 58 0 98 31 224 174 49 56 92 102 95 103 3 1 33 -36 66
-83 72 -103 187 -237 235 -275 70 -56 120 -44 120 29 0 104 -88 275 -261 507
-66 90 -149 175 -169 175 -5 0 -28 -16 -50 -36z m107 -81 c126 -148 272 -380
303 -482 36 -114 27 -117 -64 -23 -67 69 -158 182 -228 285 -21 31 -45 57 -53
57 -7 0 -68 -61 -135 -135 -67 -75 -135 -142 -151 -150 -27 -15 -29 -14 -29 5
0 60 264 500 300 500 4 0 30 -26 57 -57z"/>
<path d="M721 5979 c-11 -12 -23 -43 -27 -68 -15 -97 38 -449 80 -529 34 -66
102 -94 161 -67 45 22 51 47 36 149 -18 123 -88 400 -112 448 -44 88 -95 112
-138 67z m66 -46 c7 -10 20 -34 29 -53 21 -47 89 -326 104 -424 11 -72 10 -81
-5 -92 -24 -18 -72 1 -89 35 -48 93 -102 460 -77 524 12 32 19 33 38 10z"/>
<path d="M1302 5964 c-47 -33 -55 -66 -47 -203 9 -160 26 -227 65 -263 17 -16
39 -28 49 -28 32 0 68 37 82 87 17 60 17 227 0 307 -22 98 -88 143 -149 100z
m66 -43 c25 -15 42 -102 42 -210 0 -131 -12 -184 -42 -179 -32 5 -48 65 -58
212 -8 128 -3 169 22 179 19 8 22 8 36 -2z"/>
<path d="M2170 5834 c-81 -19 -132 -25 -225 -25 -148 1 -170 -9 -162 -71 6
-48 49 -106 98 -131 27 -15 49 -17 107 -13 l73 5 -91 -96 c-144 -151 -184
-225 -160 -298 15 -46 53 -75 100 -75 47 0 98 21 178 72 34 23 64 39 66 37 2
-2 14 -24 26 -49 70 -142 161 -131 219 25 34 89 24 123 -25 90 -14 -9 -28 -14
-31 -11 -3 3 -12 35 -19 73 -23 107 -45 127 -108 103 -14 -5 -26 -8 -26 -5 0
2 29 48 64 102 74 114 100 164 114 216 9 33 8 41 -9 58 -24 24 -57 23 -189 -7z
m150 -34 c0 -22 -61 -130 -144 -254 -112 -168 -113 -187 -4 -146 84 32 84 32
108 -75 17 -73 26 -95 41 -100 10 -4 19 -9 19 -13 0 -17 -41 -72 -54 -72 -19
0 -46 41 -75 110 -13 30 -27 59 -31 64 -5 4 -46 -17 -93 -48 -145 -97 -197
-109 -224 -52 -15 32 -15 36 6 80 13 25 77 104 144 176 175 189 190 207 183
226 -7 18 -13 17 -103 -20 -83 -35 -139 -42 -186 -23 -34 15 -77 66 -77 93 0
8 38 11 123 11 96 0 147 5 237 26 136 30 130 30 130 17z"/>
<path d="M3350 5824 c-14 -2 -59 -9 -100 -15 -146 -22 -254 -79 -290 -154 -20
-42 -20 -52 -14 -596 l7 -554 -109 -1 c-122 0 -170 -14 -285 -83 -35 -21 -86
-43 -113 -50 -26 -6 -74 -25 -106 -41 -114 -57 -156 -109 -409 -490 -271 -411
-299 -464 -321 -618 -7 -54 -6 -69 6 -83 13 -14 11 -22 -11 -73 -34 -77 -47
-139 -36 -169 7 -18 3 -44 -14 -99 -59 -186 -68 -312 -26 -369 l22 -30 -35
-82 c-45 -107 -60 -167 -53 -224 4 -38 0 -53 -23 -90 -49 -77 -111 -230 -140
-347 -80 -314 -58 -669 62 -1046 133 -416 301 -580 592 -580 199 0 492 91 812
251 l172 86 78 -54 c283 -194 562 -270 807 -218 194 41 391 186 499 367 81
137 175 409 214 623 14 77 19 149 19 310 -1 230 -13 315 -76 511 -28 88 -29
95 -14 123 30 60 9 247 -40 341 -13 24 -13 29 0 34 8 3 21 20 31 37 20 40 16
126 -11 211 -17 52 -17 58 -2 72 38 39 33 149 -13 279 -27 77 -27 80 -9 98 14
14 17 27 12 56 -14 92 -59 218 -123 348 -37 77 -96 209 -129 293 -34 84 -79
189 -101 232 -43 85 -134 191 -208 242 -25 17 -70 56 -102 87 -81 80 -149 115
-225 116 -33 0 -79 -3 -102 -8 l-43 -7 0 45 0 45 104 0 c245 0 419 103 516
305 50 104 74 214 74 340 1 112 -13 164 -72 280 -55 106 -182 229 -292 283
-121 60 -258 84 -380 66z m216 -89 c209 -49 384 -222 439 -432 19 -72 19 -128
0 -238 -40 -228 -166 -377 -360 -424 -27 -7 -108 -12 -181 -12 -111 1 -133 -1
-138 -15 -3 -9 -6 -62 -6 -119 0 -82 3 -107 16 -120 9 -9 24 -13 33 -10 42 17
129 35 165 35 57 0 115 -32 188 -103 35 -34 82 -75 106 -91 58 -39 141 -131
174 -192 14 -27 61 -133 102 -237 42 -103 102 -240 135 -305 47 -93 101 -232
101 -259 0 -2 -9 -1 -20 2 -23 7 -50 -10 -50 -32 0 -8 18 -52 40 -98 43 -88
80 -203 80 -245 l0 -25 -18 23 c-13 16 -26 23 -43 20 -20 -2 -24 -8 -23 -38 1
-19 18 -78 39 -130 23 -58 39 -119 43 -157 l5 -63 -36 0 c-53 0 -62 -24 -31
-78 67 -114 105 -322 59 -322 -7 0 -18 -7 -25 -15 -10 -12 -7 -30 18 -98 141
-371 141 -736 3 -1157 -100 -302 -210 -456 -404 -564 -239 -134 -570 -89 -884
120 l-84 56 118 80 c129 88 163 115 300 230 90 77 143 151 143 200 0 31 28 32
95 3 76 -32 99 -30 103 7 9 78 -143 263 -261 319 -128 59 -220 57 -489 -12
l-160 -41 -42 41 c-63 61 -124 84 -226 84 -154 1 -277 -52 -400 -170 -44 -41
-93 -96 -110 -121 -75 -114 -3 -201 131 -158 48 16 51 16 76 -4 51 -40 111
-19 193 67 68 72 143 107 382 177 347 102 475 120 577 82 56 -21 139 -82 180
-135 l32 -40 -56 6 c-64 7 -95 -12 -95 -57 0 -80 -108 -192 -355 -369 -315
-227 -703 -407 -1016 -472 -218 -44 -374 -12 -486 100 -114 115 -234 424 -290
746 -26 155 -24 458 5 592 35 163 94 309 174 436 27 41 29 51 19 73 -23 52 -6
126 63 262 40 79 43 115 11 120 -35 7 -45 23 -45 76 0 57 41 227 70 294 24 54
25 81 5 96 -14 10 -14 16 -2 51 21 58 75 172 103 217 28 45 29 51 8 73 -11 10
-25 14 -40 11 -29 -8 -28 -12 -5 55 30 88 49 120 284 476 157 237 238 351 274
383 57 51 139 95 198 105 22 4 57 18 78 31 153 99 276 126 395 88 93 -30 86
-84 78 591 -6 523 -5 598 9 624 27 53 123 89 305 115 62 9 170 4 226 -9z
m-861 -4514 c22 -10 46 -25 53 -33 10 -13 3 -18 -55 -37 -130 -43 -206 -85
-281 -155 -39 -37 -75 -65 -80 -62 -5 3 -12 19 -15 36 -8 38 -41 40 -92 6 -36
-25 -92 -42 -102 -33 -14 14 17 57 95 135 67 66 103 93 159 119 117 54 230 63
318 24z"/>
<path d="M3327 5473 c-4 -3 -7 -124 -7 -268 0 -227 2 -264 16 -276 24 -19 162
3 238 40 116 55 161 119 161 231 0 112 -42 177 -146 231 -71 36 -241 64 -262
42z m219 -113 c74 -33 105 -73 112 -141 11 -112 -58 -175 -230 -213 l-28 -6 0
201 0 201 43 -7 c23 -4 69 -19 103 -35z"/>
<path d="M2985 3949 c-149 -18 -306 -82 -426 -175 -257 -197 -438 -605 -456
-1024 l-6 -145 -42 -47 c-26 -29 -48 -68 -59 -102 -22 -70 -23 -204 -2 -264
82 -230 425 -390 881 -411 261 -12 481 7 684 60 396 102 603 307 552 550 -16
74 -62 144 -117 177 -42 25 -44 29 -40 62 24 187 28 277 17 392 -20 212 -50
328 -126 483 -137 280 -367 432 -680 448 -55 3 -136 1 -180 -4z m313 -64 c46
-9 115 -34 171 -62 232 -113 385 -357 440 -703 13 -79 13 -356 1 -425 -25
-139 -26 -131 12 -144 42 -14 102 -74 121 -121 47 -115 27 -214 -62 -312 -180
-196 -558 -299 -1045 -285 -192 6 -309 21 -442 58 -219 60 -384 170 -441 295
-23 50 -25 65 -21 147 5 109 32 178 83 208 l32 19 6 158 c9 244 66 468 171
676 61 119 91 161 185 260 113 118 255 197 411 231 89 18 283 19 378 0z"/>
<path d="M2600 3151 c-51 -97 104 -284 204 -245 45 17 18 134 -47 202 -59 62
-135 83 -157 43z"/>
<path d="M3495 3159 c-42 -24 -88 -76 -111 -124 -41 -85 -28 -135 33 -135 95
0 207 152 177 239 -7 20 -17 27 -44 28 -19 2 -44 -2 -55 -8z"/>
<path d="M3050 2837 c-19 -7 -36 -19 -38 -28 -2 -9 13 -37 33 -63 33 -44 36
-54 46 -153 5 -58 8 -107 7 -108 -2 -1 -25 -6 -52 -11 -56 -10 -80 -35 -56
-59 13 -13 28 -13 101 -4 60 8 101 8 134 1 58 -12 75 -7 75 22 0 27 -35 46
-85 46 -22 0 -37 6 -44 18 -15 28 -25 218 -12 226 18 12 51 84 45 99 -10 28
-91 35 -154 14z"/>
<path d="M5838 5775 c-46 -26 -69 -77 -75 -164 -10 -136 29 -281 78 -294 53
-14 95 30 159 166 96 204 74 297 -73 304 -42 2 -71 -2 -89 -12z m130 -46 c19
-7 32 -19 37 -36 8 -32 -18 -120 -62 -208 -42 -85 -68 -119 -87 -112 -34 13
-55 248 -28 313 21 50 74 66 140 43z"/>
<path d="M5287 5760 c-38 -24 -52 -70 -51 -175 2 -195 57 -302 121 -232 47 51
93 194 93 289 0 77 -33 118 -100 124 -25 3 -53 0 -63 -6z m93 -60 c13 -13 20
-33 20 -58 0 -46 -34 -171 -60 -221 l-18 -36 -10 25 c-16 44 -33 188 -26 227
13 78 53 104 94 63z"/>
</g>
</svg>
